<?xml version="1.0" encoding="UTF-8"?>
<svg xmlns="http://www.w3.org/2000/svg" xmlns:xlink="http://www.w3.org/1999/xlink" width="40px" height="39px" viewBox="0 0 39 39" version="1.1">
<g id="surface1">
<path style=" stroke:none;fill-rule:nonzero;fill:rgb(1.568627%,2.352941%,2.352941%);fill-opacity:1;" d="M 19.503906 1.742188 C 9.6875 1.742188 1.742188 9.808594 1.742188 19.773438 C 1.742188 28.246094 7.46875 35.28125 15.195312 37.261719 C 15.105469 37.035156 15.0625 36.71875 15.0625 36.40625 L 15.0625 33.339844 L 12.84375 33.339844 C 11.644531 33.339844 10.53125 32.800781 10.042969 31.808594 C 9.46875 30.726562 9.378906 29.058594 7.914062 28.019531 C 7.46875 27.660156 7.824219 27.296875 8.3125 27.34375 C 9.246094 27.613281 10 28.246094 10.710938 29.191406 C 11.417969 30.136719 11.730469 30.363281 13.0625 30.363281 C 13.683594 30.363281 14.660156 30.316406 15.550781 30.179688 C 16.039062 28.917969 16.882812 27.792969 17.902344 27.253906 C 11.953125 26.53125 9.113281 23.554688 9.113281 19.496094 C 9.113281 17.738281 9.867188 16.070312 11.109375 14.628906 C 10.710938 13.230469 10.175781 10.34375 11.289062 9.21875 C 13.953125 9.21875 15.550781 10.976562 15.949219 11.425781 C 17.28125 10.976562 18.746094 10.707031 20.257812 10.707031 C 21.808594 10.707031 23.230469 10.976562 24.5625 11.425781 C 24.960938 10.976562 26.5625 9.21875 29.222656 9.21875 C 30.289062 10.300781 29.800781 13.230469 29.359375 14.628906 C 30.601562 16.027344 31.3125 17.738281 31.3125 19.496094 C 31.3125 23.554688 28.515625 26.53125 22.609375 27.160156 C 24.253906 28.019531 25.40625 30.453125 25.40625 32.253906 L 25.40625 36.363281 C 25.40625 36.496094 25.363281 36.632812 25.363281 36.765625 C 32.289062 34.332031 37.261719 27.660156 37.261719 19.773438 C 37.261719 9.808594 29.316406 1.742188 19.503906 1.742188 "/>
</g>
</svg>
